<svg width="24" height="24" viewBox="0 0 24 24" fill="none" xmlns="http://www.w3.org/2000/svg">
<path fill-rule="evenodd" clip-rule="evenodd" d="M11.3457 6.56505C11.4589 6.66486 11.6099 6.71054 11.7595 6.69021C12.7606 6.50561 13.6561 5.95258 14.2695 5.14021C14.8659 4.38752 15.2151 3.46897 15.2695 2.51021C15.274 2.35133 15.2041 2.19945 15.0806 2.09945C14.9571 1.99944 14.794 1.96275 14.6395 2.00021C13.6746 2.25217 12.8116 2.79721 12.1695 3.56021C11.5594 4.29728 11.2081 5.21419 11.1695 6.17021C11.1681 6.32115 11.2324 6.46524 11.3457 6.56505ZM18.702 9.22573C18.1104 9.7809 17.1795 10.6544 17.1795 12.5102C17.1656 14.1671 18.0755 15.694 19.5395 16.4702C19.7206 16.552 19.8377 16.7315 19.8395 16.9302C19.8395 17.0002 17.7395 22.0002 15.2195 22.0002C14.6678 22.0002 14.3001 21.8263 13.8974 21.6359C13.4095 21.4052 12.87 21.1502 11.8895 21.1502C10.9231 21.1502 10.3823 21.3979 9.88458 21.6259C9.46045 21.8202 9.06766 22.0002 8.46952 22.0002C6.14952 22.0002 2.99952 17.1402 2.99952 12.7502C2.95966 11.5102 3.26797 10.2839 3.88952 9.21021C4.76612 7.72454 6.32713 6.77518 8.04952 6.68021C8.86119 6.68021 9.52563 6.91911 10.1541 7.14508C10.7181 7.34785 11.2531 7.54021 11.8395 7.54021C12.3994 7.54021 12.8512 7.36489 13.3468 7.17257C13.949 6.93894 14.6158 6.68021 15.6195 6.68021C17.4495 6.68021 19.1795 8.00021 19.1795 8.59021C19.1795 8.77768 18.9776 8.96717 18.702 9.22573Z" fill="black"/>
</svg>
