<svg width="68" height="68" viewBox="0 0 68 68" fill="none" xmlns="http://www.w3.org/2000/svg">
<path d="M12.4375 0.25C9.20517 0.25 6.10524 1.53404 3.81964 3.81964C1.53404 6.10524 0.25 9.20517 0.25 12.4375V55.5625C0.25 58.7948 1.53404 61.8948 3.81964 64.1804C6.10524 66.466 9.20517 67.75 12.4375 67.75H55.5625C58.7948 67.75 61.8948 66.466 64.1804 64.1804C66.466 61.8948 67.75 58.7948 67.75 55.5625V12.4375C67.75 9.20517 66.466 6.10524 64.1804 3.81964C61.8948 1.53404 58.7948 0.25 55.5625 0.25H12.4375Z" fill="url(#paint0_linear_316_3008)"/>
<path d="M53.8002 23.8L28.4727 49.1013C27.9453 49.628 27.2305 49.9238 26.4852 49.9238C25.7398 49.9238 25.025 49.628 24.4977 49.1013L14.2002 38.8C13.7034 38.2669 13.4329 37.5617 13.4458 36.8331C13.4586 36.1045 13.7538 35.4093 14.2691 34.894C14.7844 34.3787 15.4796 34.0835 16.2082 34.0706C16.9368 34.0578 17.642 34.3282 18.1752 34.825L26.4889 43.135L49.8252 19.8213C50.0866 19.5603 50.397 19.3534 50.7385 19.2123C51.0799 19.0712 51.4459 18.9988 51.8153 18.9991C52.1848 18.9995 52.5505 19.0726 52.8918 19.2143C53.233 19.356 53.5429 19.5636 53.8039 19.825C54.0649 20.0865 54.2718 20.3969 54.4129 20.7384C54.554 21.0798 54.6264 21.4457 54.6261 21.8152C54.6257 22.1847 54.5526 22.5504 54.4109 22.8916C54.2692 23.2328 54.0617 23.5428 53.8002 23.8038" fill="url(#paint1_linear_316_3008)"/>
<defs>
<linearGradient id="paint0_linear_316_3008" x1="34" y1="0.25" x2="34" y2="67.75" gradientUnits="userSpaceOnUse">
<stop stop-color="#3EBB85"/>
<stop offset="1" stop-color="#1C553C"/>
</linearGradient>
<linearGradient id="paint1_linear_316_3008" x1="21.3102" y1="21.3775" x2="39.5014" y2="80.1738" gradientUnits="userSpaceOnUse">
<stop stop-color="white"/>
<stop offset="1" stop-color="#B3E0FF"/>
</linearGradient>
</defs>
</svg>
