<svg width="89" height="76" viewBox="0 0 89 76" fill="none" xmlns="http://www.w3.org/2000/svg">
<path fill-rule="evenodd" clip-rule="evenodd" d="M81.9223 21.4627C81.6793 21.4484 81.4205 21.4427 81.146 21.4455H70.3159C61.4459 21.4455 53.8584 28.4283 53.8584 37.5299C53.8584 46.6315 61.4502 53.6142 70.3159 53.6142H81.146C81.4205 53.6171 81.6807 53.6114 81.9266 53.5971C83.7496 53.4871 85.4705 52.7182 86.7686 51.4335C88.0667 50.1489 88.8535 48.4361 88.9823 46.6143C88.9995 46.357 88.9995 46.0782 88.9995 45.8208V29.2389C88.9995 28.9816 88.9995 28.7028 88.9823 28.4454C88.8535 26.6237 88.0667 24.9109 86.7686 23.6262C85.4705 22.3415 83.7454 21.5726 81.9223 21.4627ZM69.368 41.819C71.6498 41.819 73.4984 39.8975 73.4984 37.5299C73.4984 35.1623 71.6498 33.2407 69.368 33.2407C67.0819 33.2407 65.2332 35.1623 65.2332 37.5299C65.2332 39.8975 67.0819 41.819 69.368 41.819Z" fill="#B46CAC"/>
<path fill-rule="evenodd" clip-rule="evenodd" d="M81.1423 60.0482C81.2905 60.0422 81.4381 60.0713 81.5731 60.1331C81.708 60.1949 81.8264 60.2877 81.9188 60.4038C82.0111 60.52 82.0748 60.6563 82.1046 60.8017C82.1343 60.9471 82.1294 61.0975 82.0902 61.2406C81.2323 64.2945 79.8641 66.9023 77.6723 69.0897C74.4598 72.3066 70.3893 73.7263 65.3625 74.404C60.4728 75.0602 54.2321 75.0602 46.3486 75.0602H37.2899C29.4065 75.0602 23.1614 75.0602 18.2761 74.404C13.2492 73.7263 9.17879 72.3023 5.96622 69.094C2.75793 65.8814 1.33393 61.811 0.656241 56.7841C5.11307e-07 51.8945 0 45.6538 0 37.7703V37.2899C0 29.4065 5.11307e-07 23.1614 0.656241 18.2718C1.33393 13.2449 2.75793 9.17451 5.96622 5.96193C9.17879 2.75364 13.2492 1.32964 18.2761 0.651952C23.1657 -1.9174e-07 29.4065 0 37.2899 0H46.3486C54.2321 0 60.4771 5.11307e-07 65.3625 0.656241C70.3893 1.33393 74.4598 2.75793 77.6723 5.96622C79.8641 8.16226 81.2323 10.7658 82.0902 13.8197C82.1294 13.9628 82.1343 14.1131 82.1046 14.2585C82.0748 14.4039 82.0111 14.5402 81.9188 14.6564C81.8264 14.7726 81.708 14.8653 81.5731 14.9271C81.4381 14.9889 81.2905 15.018 81.1423 15.012H70.3164C58.1481 15.012 47.4252 24.6198 47.4252 37.5301C47.4252 50.4405 58.1481 60.0482 70.3164 60.0482H81.1423ZM16.0843 17.1566C15.2312 17.1566 14.4129 17.4955 13.8097 18.0988C13.2064 18.7021 12.8675 19.5203 12.8675 20.3735C12.8675 21.2267 13.2064 22.0449 13.8097 22.6482C14.4129 23.2514 15.2312 23.5904 16.0843 23.5904H33.241C34.0941 23.5904 34.9123 23.2514 35.5156 22.6482C36.1189 22.0449 36.4578 21.2267 36.4578 20.3735C36.4578 19.5203 36.1189 18.7021 35.5156 18.0988C34.9123 17.4955 34.0941 17.1566 33.241 17.1566H16.0843Z" fill="#B46CAC"/>
</svg>
